<mxfile host="app.diagrams.net" agent="Mozilla/5.0 (Windows NT 10.0; Win64; x64) AppleWebKit/537.36 (KHTML, like Gecko) Chrome/128.0.0.0 Safari/537.36" version="24.7.8">
  <diagram name="PÃ¡gina-1" id="3yVSO7AMyCLUYyvSU-9g">
    <mxGraphModel dx="1615" dy="869" grid="1" gridSize="10" guides="1" tooltips="1" connect="1" arrows="1" fold="1" page="1" pageScale="1" pageWidth="827" pageHeight="1169" math="0" shadow="0">
      <root>
        <mxCell id="0" />
        <mxCell id="1" parent="0" />
        <mxCell id="QnpBeFwq0LqfrRIg-mZL-3" style="edgeStyle=orthogonalEdgeStyle;rounded=0;orthogonalLoop=1;jettySize=auto;html=1;" edge="1" parent="1" source="QnpBeFwq0LqfrRIg-mZL-1" target="QnpBeFwq0LqfrRIg-mZL-2">
          <mxGeometry relative="1" as="geometry" />
        </mxCell>
        <mxCell id="QnpBeFwq0LqfrRIg-mZL-7" style="edgeStyle=orthogonalEdgeStyle;rounded=0;orthogonalLoop=1;jettySize=auto;html=1;entryX=1;entryY=0.5;entryDx=0;entryDy=0;" edge="1" parent="1" source="QnpBeFwq0LqfrRIg-mZL-1" target="QnpBeFwq0LqfrRIg-mZL-6">
          <mxGeometry relative="1" as="geometry" />
        </mxCell>
        <mxCell id="QnpBeFwq0LqfrRIg-mZL-8" style="edgeStyle=orthogonalEdgeStyle;rounded=0;orthogonalLoop=1;jettySize=auto;html=1;entryX=1;entryY=0.5;entryDx=0;entryDy=0;" edge="1" parent="1" source="QnpBeFwq0LqfrRIg-mZL-1" target="QnpBeFwq0LqfrRIg-mZL-5">
          <mxGeometry relative="1" as="geometry" />
        </mxCell>
        <mxCell id="QnpBeFwq0LqfrRIg-mZL-10" style="edgeStyle=orthogonalEdgeStyle;rounded=0;orthogonalLoop=1;jettySize=auto;html=1;entryX=1;entryY=0.5;entryDx=0;entryDy=0;" edge="1" parent="1" source="QnpBeFwq0LqfrRIg-mZL-1" target="QnpBeFwq0LqfrRIg-mZL-9">
          <mxGeometry relative="1" as="geometry" />
        </mxCell>
        <mxCell id="QnpBeFwq0LqfrRIg-mZL-12" style="edgeStyle=orthogonalEdgeStyle;rounded=0;orthogonalLoop=1;jettySize=auto;html=1;entryX=0;entryY=0.5;entryDx=0;entryDy=0;" edge="1" parent="1" source="QnpBeFwq0LqfrRIg-mZL-1" target="QnpBeFwq0LqfrRIg-mZL-11">
          <mxGeometry relative="1" as="geometry" />
        </mxCell>
        <mxCell id="QnpBeFwq0LqfrRIg-mZL-1" value="nome" style="rounded=0;whiteSpace=wrap;html=1;" vertex="1" parent="1">
          <mxGeometry x="260" y="250" width="120" height="60" as="geometry" />
        </mxCell>
        <mxCell id="QnpBeFwq0LqfrRIg-mZL-2" value="nome" style="ellipse;whiteSpace=wrap;html=1;" vertex="1" parent="1">
          <mxGeometry x="80" y="240" width="120" height="80" as="geometry" />
        </mxCell>
        <mxCell id="QnpBeFwq0LqfrRIg-mZL-5" value="email" style="ellipse;whiteSpace=wrap;html=1;" vertex="1" parent="1">
          <mxGeometry x="80" y="360" width="120" height="80" as="geometry" />
        </mxCell>
        <mxCell id="QnpBeFwq0LqfrRIg-mZL-6" value="cpf" style="ellipse;whiteSpace=wrap;html=1;" vertex="1" parent="1">
          <mxGeometry x="80" y="120" width="120" height="80" as="geometry" />
        </mxCell>
        <mxCell id="QnpBeFwq0LqfrRIg-mZL-9" value="telefone" style="ellipse;whiteSpace=wrap;html=1;" vertex="1" parent="1">
          <mxGeometry x="80" y="480" width="120" height="80" as="geometry" />
        </mxCell>
        <mxCell id="QnpBeFwq0LqfrRIg-mZL-15" value="" style="edgeStyle=orthogonalEdgeStyle;rounded=0;orthogonalLoop=1;jettySize=auto;html=1;" edge="1" parent="1" source="QnpBeFwq0LqfrRIg-mZL-11" target="QnpBeFwq0LqfrRIg-mZL-14">
          <mxGeometry relative="1" as="geometry" />
        </mxCell>
        <mxCell id="QnpBeFwq0LqfrRIg-mZL-11" value="tem" style="rhombus;whiteSpace=wrap;html=1;" vertex="1" parent="1">
          <mxGeometry x="450" y="240" width="80" height="80" as="geometry" />
        </mxCell>
        <mxCell id="QnpBeFwq0LqfrRIg-mZL-20" style="edgeStyle=orthogonalEdgeStyle;rounded=0;orthogonalLoop=1;jettySize=auto;html=1;entryX=0.5;entryY=1;entryDx=0;entryDy=0;" edge="1" parent="1" source="QnpBeFwq0LqfrRIg-mZL-14" target="QnpBeFwq0LqfrRIg-mZL-19">
          <mxGeometry relative="1" as="geometry" />
        </mxCell>
        <mxCell id="QnpBeFwq0LqfrRIg-mZL-23" style="edgeStyle=orthogonalEdgeStyle;rounded=0;orthogonalLoop=1;jettySize=auto;html=1;entryX=0;entryY=0.5;entryDx=0;entryDy=0;" edge="1" parent="1" source="QnpBeFwq0LqfrRIg-mZL-14" target="QnpBeFwq0LqfrRIg-mZL-21">
          <mxGeometry relative="1" as="geometry" />
        </mxCell>
        <mxCell id="QnpBeFwq0LqfrRIg-mZL-24" style="edgeStyle=orthogonalEdgeStyle;rounded=0;orthogonalLoop=1;jettySize=auto;html=1;entryX=0.5;entryY=0;entryDx=0;entryDy=0;" edge="1" parent="1" source="QnpBeFwq0LqfrRIg-mZL-14" target="QnpBeFwq0LqfrRIg-mZL-22">
          <mxGeometry relative="1" as="geometry" />
        </mxCell>
        <mxCell id="QnpBeFwq0LqfrRIg-mZL-14" value="pet" style="whiteSpace=wrap;html=1;" vertex="1" parent="1">
          <mxGeometry x="590" y="250" width="120" height="60" as="geometry" />
        </mxCell>
        <mxCell id="QnpBeFwq0LqfrRIg-mZL-19" value="nome" style="ellipse;whiteSpace=wrap;html=1;" vertex="1" parent="1">
          <mxGeometry x="590" y="110" width="120" height="80" as="geometry" />
        </mxCell>
        <mxCell id="QnpBeFwq0LqfrRIg-mZL-21" value="especie" style="ellipse;whiteSpace=wrap;html=1;" vertex="1" parent="1">
          <mxGeometry x="740" y="240" width="120" height="80" as="geometry" />
        </mxCell>
        <mxCell id="QnpBeFwq0LqfrRIg-mZL-22" value="data nascimento" style="ellipse;whiteSpace=wrap;html=1;" vertex="1" parent="1">
          <mxGeometry x="590" y="370" width="120" height="80" as="geometry" />
        </mxCell>
      </root>
    </mxGraphModel>
  </diagram>
</mxfile>
